Coordinates
version=1
nRows=14
nColumns=36
inDegrees=yes

Units are S.I. units (second, meters, Newtons, ...)
If the header above contains a line with 'inDegrees', this indicates whether rotational values are in degrees (yes) or radians (no).

endheader
time	pelvis_tilt	pelvis_list	pelvis_rotation	pelvis_tx	pelvis_ty	pelvis_tz	hip_flexion_r	hip_adduction_r	hip_rotation_r	knee_angle_r	knee_angle_r_beta	ankle_angle_r	subtalar_angle_r	mtp_angle_r	hip_flexion_l	hip_adduction_l	hip_rotation_l	knee_angle_l	knee_angle_l_beta	ankle_angle_l	subtalar_angle_l	mtp_angle_l	lumbar_extension	lumbar_bending	lumbar_rotation	arm_flex_r	arm_add_r	arm_rot_r	elbow_flex_r	pro_sup_r	arm_flex_l	arm_add_l	arm_rot_l	elbow_flex_l	pro_sup_l
      2.48333330	     -3.02416585	      1.06629300	     10.03088394	      0.53848914	      0.75479308	     -0.20543648	     45.12329541	     -1.97351392	      7.36105833	     78.50796491	      1.37022248	     40.62387449	    -10.37641324	     -7.49999987	     42.22053945	     -2.30091282	     -4.82513433	     76.63585673	      1.33754802	     34.31235889	    -14.62956498	     -7.49999987	     -8.86039207	     -3.13090087	      1.76353578	      6.21380171	     -9.54029641	     23.27423912	     28.50659023	     71.72818495	     10.26933947	    -10.88124550	     24.51493328	     41.52050847	     81.76966026
      2.50000000	     -2.21541598	      1.61640328	      9.99453070	      0.54190802	      0.77189221	     -0.20989609	     42.86899417	     -2.24147751	      7.75810263	     75.46238573	      1.31706709	     39.40173131	    -11.22785328	     -7.49999987	     40.04963556	     -1.74605309	     -4.99243454	     73.40799044	      1.28121113	     31.65244017	    -15.26310393	     -7.49999987	     -9.41719975	     -3.49403940	      2.16852747	      7.30086137	    -10.06231239	     22.04269075	     31.73370193	     71.86164958	     10.39410884	    -11.10608446	     24.84684909	     44.30131257	     81.57371970
      2.51666670	     -1.63923644	      1.79211003	      9.87739117	      0.53784512	      0.78574258	     -0.20735953	     40.69421400	     -2.01077770	      8.03366531	     71.97698311	      1.25623534	     37.57233245	    -12.78426794	     -7.49999987	     38.00188231	     -1.61274376	     -5.11207389	     69.90790846	      1.22012318	     30.50052199	    -15.56403459	     -7.49999987	     -9.89659772	     -3.62564237	      2.48650396	      7.85726456	    -10.35310861	     20.13386448	     35.55426292	     72.65443723	     10.11349211	    -11.41676181	     24.16656981	     47.04906188	     82.33231198
      2.53333330	     -1.42496794	      1.86731702	      9.92236958	      0.53720111	      0.79804654	     -0.20747392	     39.03312615	     -2.03895448	      8.18990802	     68.90723073	      1.20265805	     36.05701841	    -12.69089768	     -7.49999987	     36.38148949	     -1.40181019	     -5.12012307	     66.85669008	      1.16686937	     28.92479524	    -15.81323937	     -7.49999987	     -9.81842732	     -3.71591365	      2.94348885	      7.34190705	    -10.13025249	     14.00501073	     39.89622751	     82.92129638	      9.61906085	    -11.32676654	     22.52532116	     49.85282983	     89.71780487
      2.55000000	     -0.92461207	      2.06961238	      9.54476130	      0.53676069	      0.81714026	     -0.20944021	     36.29046688	     -1.88216286	      8.90616096	     64.84070313	      1.13168376	     33.89945559	    -13.35959775	     -7.49999987	     33.66692831	     -0.84105432	     -5.19951830	     62.95359210	      1.09874746	     26.95399203	    -16.58563439	     -7.49999987	     -9.71169605	     -3.72797444	      2.95569615	      7.88990074	    -10.06594209	     13.47028486	     42.83118706	     81.53945366	      8.73875524	    -11.31287237	     21.73845579	     51.41133580	     87.74195220
      2.56666670	     -0.48104928	      2.08541614	      9.29575789	      0.53126491	      0.83841661	     -0.21254640	     33.08584258	     -1.87794172	      9.25468602	     59.30324412	      1.03503687	     31.30923028	    -13.88296377	     -7.49999987	     30.79451380	     -0.21143269	     -4.99309909	     57.70893404	      1.00721091	     25.42508177	    -17.71844432	     -7.49999987	     -9.74292058	     -3.46070191	      2.92226583	      8.74969033	    -10.05460514	     13.21693912	     45.35802427	     81.44026492	      8.20685383	    -10.99525288	     21.05593742	     52.45958851	     87.29656162
      2.58333330	     -0.62432502	      1.69421842	      9.56588275	      0.52705271	      0.84580161	     -0.21118201	     30.99191038	     -1.82172673	      9.20641239	     54.40747593	      0.94958959	     29.42072227	    -14.08200768	     -7.49999987	     28.95754977	      0.12767654	     -4.44953860	     53.44170561	      0.93273372	     23.22611552	    -18.20657628	     -7.49999987	     -9.15649146	     -3.08961921	      2.94698535	      8.97735236	    -10.07159290	     12.82783673	     47.83969931	     81.91303863	      7.58484284	    -10.85335821	     20.43799996	     54.14878432	     87.74847197
      2.60000000	     -0.58797261	      1.57382037	     10.07523370	      0.52672046	      0.86076446	     -0.21280461	     28.53739263	     -2.17877016	      8.90991631	     49.61988583	      0.86603038	     27.40328537	    -13.73028987	     -7.49999987	     26.21529031	      0.46247054	     -4.58929039	     48.47034175	      0.84596705	     21.24514123	    -17.57886233	     -7.49999987	     -8.50513149	     -2.96524439	      2.76529829	      8.92425233	    -10.04572310	     12.47610027	     49.62152308	     82.48908386	      7.06971600	    -10.53256171	     20.18973362	     54.59988560	     88.29848725
      2.61666670	     -1.59421854	      1.12345404	     10.39229067	      0.52775970	      0.87054140	     -0.21384592	     27.56988766	     -2.22913063	      8.62134002	     45.55789841	      0.79513533	     25.88294331	    -12.72120029	     -7.49999987	     25.06171141	      0.37668543	     -5.08485820	     44.23572982	      0.77205913	     19.92720250	    -16.56222475	     -7.49999987	     -6.11144375	     -2.75195853	      2.81345171	      8.42931351	     -9.94282637	     12.56214235	     50.37898055	     82.57978397	      5.68322715	    -10.38874034	     20.49598834	     54.83157257	     88.40147655
      2.63333330	     -1.14494128	      1.32738681	     10.65008813	      0.52670492	      0.88428967	     -0.21457516	     24.72820233	     -2.83090002	      7.98337309	     40.99110295	      0.71542971	     23.51118210	    -12.02417114	     -7.49999987	     21.72682718	      1.01751518	     -5.29190198	     38.85648125	      0.67817353	     18.03454649	    -15.98148722	     -7.49999987	     -6.18090497	     -3.04325195	      2.52458978	      8.13090051	     -9.80156532	     12.50997151	     52.22529672	     82.87753085	      4.78904627	    -10.41638575	     20.38407888	     54.81265073	     88.63972570
      2.65000000	     -0.93287570	      0.95199028	     10.83449350	      0.52769113	      0.89991475	     -0.21670462	     21.85416190	     -2.98741431	      7.08343191	     35.85903358	      0.62585820	     21.36233231	    -10.60830223	     -7.49999987	     18.77533271	      1.18296435	     -5.06502025	     33.54901897	      0.58554084	     16.10797876	    -15.88957133	     -7.49999987	     -5.53102757	     -2.51772474	      3.02825778	      7.27429346	     -9.78478835	     11.38315087	     53.74470272	     85.69912379	      4.12225594	    -10.18412861	     21.10996884	     54.28111085	     91.35404367
      2.66666670	     -1.70370003	      0.46382289	     10.83601134	      0.53234294	      0.90576642	     -0.21491391	     20.35013095	     -2.87241506	      6.85966036	     31.42338256	      0.54844149	     19.67493922	     -9.50497785	     -7.49999987	     17.14720519	      1.03672115	     -5.28664373	     29.10435290	      0.50796678	     15.10970670	    -15.01482673	     -7.49999987	     -3.38103738	     -2.31625341	      3.17229794	      6.61223783	     -9.63327296	     11.74376128	     54.35909322	     85.75353734	      2.75596790	    -10.35495266	     21.34435913	     54.25070366	     91.39344870
      2.68333330	     -1.28708849	      0.29874411	     10.81051951	      0.53280017	      0.91507720	     -0.21561926	     17.42495061	     -2.62349291	      7.00010437	     26.77286905	      0.46727472	     17.80283476	     -9.54258729	     -7.49999987	     14.58746081	      1.01773646	     -5.30915518	     25.22523946	      0.44026348	     13.68375138	    -15.02088174	     -7.49999987	     -3.02720231	     -2.18587572	      3.21205970	      6.36243394	     -9.67337504	     12.55083951	     55.58603029	     85.84168685	      1.96047050	    -10.59387617	     21.59422175	     54.23450231	     91.44046261
      2.70000000	     -1.35608023	      0.01927175	     10.52094256	      0.53167683	      0.92496885	     -0.21559232	     14.81567258	     -2.46284854	      6.78502787	     21.51168090	      0.37544966	     16.09533049	     -8.88408817	     -7.49999987	     12.93537846	      0.87226945	     -5.68121221	     21.89801814	      0.38219252	     11.99017604	    -14.56447183	     -7.49999987	     -2.12725068	     -1.85826382	      3.52650512	      6.16639243	     -9.70550898	     13.37894828	     56.64449967	     85.86571737	      1.12471915	    -10.87941998	     21.79370681	     54.55746699	     91.48557363
